# xmcd
#
# Track frame offsets: 
#        182
#        12765
#        25047
#        39252
#        54855
#        65642
#        82220
#        96375
#        108915
#        127905
#        143305
#        160250
#        170875
#        184930
#
# Disc length: 2567 seconds
#
# Revision: 1
# Processed by: cddbd v1.5PL3 Copyright (c) Steve Scherf et al.
# Submitted via: ExactAudioCopy v0.90b4
#
DISCID=b00a050e
DTITLE=The Forester Sisters - Sunday Meetin'
DYEAR=1993
DGENRE=Gospel
TTITLE0=Sweet By And By
TTITLE1=Church In The Wildwood
TTITLE2=What A Friend We Have In Jesus
TTITLE3=Amazing Grace
TTITLE4=Rock Of Ages
TTITLE5=How Great Thou Art
TTITLE6=Wings Of A Dove
TTITLE7=The Lord's Prayer
TTITLE8=Whispering Hope
TTITLE9=Sweet Hour Of Prayer
TTITLE10=Just A Closer Walk With Thee
TTITLE11=Lily Of The Valley
TTITLE12=Old Rugged Cross
TTITLE13=Motherless Child
EXTD=
EXTT0=
EXTT1=
EXTT2=
EXTT3=
EXTT4=
EXTT5=
EXTT6=
EXTT7=
EXTT8=
EXTT9=
EXTT10=
EXTT11=
EXTT12=
EXTT13=
PLAYORDER=
